<svg width="38" height="38" viewBox="0 0 38 38" fill="none" xmlns="http://www.w3.org/2000/svg">
<rect x="0.5" y="0.332031" width="37.3347" height="37.3347" rx="5" fill="url(#paint0_linear_6667_1299)"/>
<path d="M23.3134 8.17383H14.7584C10.8217 8.17383 7.62921 11.2665 7.62921 15.0802V23.3679C7.62921 27.1817 10.8217 30.2743 14.7584 30.2743H23.3134C27.2502 30.2743 30.4426 27.1817 30.4426 23.3679V15.0802C30.4426 11.2665 27.2502 8.17383 23.3134 8.17383ZM28.3039 23.3679C28.3039 26.0338 26.0653 28.2024 23.3134 28.2024H14.7584C12.0065 28.2024 9.76797 26.0338 9.76797 23.3679V15.0802C9.76797 12.4144 12.0065 10.2458 14.7584 10.2458H23.3134C26.0653 10.2458 28.3039 12.4144 28.3039 15.0802V23.3679Z" fill="white"/>
<path d="M19.0359 13.699C15.8862 13.699 13.3326 16.1728 13.3326 19.2241C13.3326 22.2753 15.8862 24.7492 19.0359 24.7492C22.1856 24.7492 24.7393 22.2753 24.7393 19.2241C24.7393 16.1728 22.1856 13.699 19.0359 13.699ZM19.0359 22.6773C17.0711 22.6773 15.4713 21.1275 15.4713 19.2241C15.4713 17.3193 17.0711 15.7709 19.0359 15.7709C21.0007 15.7709 22.6005 17.3193 22.6005 19.2241C22.6005 21.1275 21.0007 22.6773 19.0359 22.6773Z" fill="white"/>
<path d="M25.6088 14.4352C26.0286 14.4352 26.3688 14.1056 26.3688 13.699C26.3688 13.2924 26.0286 12.9627 25.6088 12.9627C25.1891 12.9627 24.8489 13.2924 24.8489 13.699C24.8489 14.1056 25.1891 14.4352 25.6088 14.4352Z" fill="white"/>
<path d="M23.3135 8.17383H14.7584C10.8217 8.17383 7.62921 11.2665 7.62921 15.0802V23.3679C7.62921 27.1817 10.8217 30.2743 14.7584 30.2743H23.3135C27.2502 30.2743 30.4426 27.1817 30.4426 23.3679V15.0802C30.4426 11.2665 27.2502 8.17383 23.3135 8.17383ZM28.3039 23.3679C28.3039 26.0338 26.0653 28.2024 23.3135 28.2024H14.7584C12.0065 28.2024 9.76797 26.0338 9.76797 23.3679V15.0802C9.76797 12.4144 12.0065 10.2458 14.7584 10.2458H23.3135C26.0653 10.2458 28.3039 12.4144 28.3039 15.0802V23.3679Z" fill="white"/>
<path d="M19.0359 13.699C15.8862 13.699 13.3326 16.1728 13.3326 19.2241C13.3326 22.2753 15.8862 24.7492 19.0359 24.7492C22.1856 24.7492 24.7393 22.2753 24.7393 19.2241C24.7393 16.1728 22.1856 13.699 19.0359 13.699ZM19.0359 22.6773C17.0711 22.6773 15.4713 21.1275 15.4713 19.2241C15.4713 17.3193 17.0711 15.7709 19.0359 15.7709C21.0007 15.7709 22.6005 17.3193 22.6005 19.2241C22.6005 21.1275 21.0007 22.6773 19.0359 22.6773Z" fill="white"/>
<path d="M25.6088 14.4352C26.0286 14.4352 26.3688 14.1056 26.3688 13.699C26.3688 13.2924 26.0286 12.9627 25.6088 12.9627C25.1891 12.9627 24.8489 13.2924 24.8489 13.699C24.8489 14.1056 25.1891 14.4352 25.6088 14.4352Z" fill="white"/>
<ellipse cx="25.4522" cy="13.877" rx="1.42584" ry="1.42584" fill="white"/>
<defs>
<linearGradient id="paint0_linear_6667_1299" x1="3.91764" y1="34.2494" x2="34.4171" y2="3.74944" gradientUnits="userSpaceOnUse">
<stop stop-color="#FFC107"/>
<stop offset="0.507" stop-color="#F44336"/>
<stop offset="0.99" stop-color="#9C27B0"/>
</linearGradient>
</defs>
</svg>
